<svg width="164" height="74" viewBox="0 0 164 74" fill="none" xmlns="http://www.w3.org/2000/svg">
<g clip-path="url(#clip0_4602_674)" filter="url(#filter0_d_4602_674)">
<path d="M52.513 24.6743C52.4887 21.1069 51.3262 17.6401 49.1945 14.7779C49.166 14.7184 49.1263 14.665 49.0775 14.6205C47.6528 12.7179 45.9212 11.0654 43.9534 9.73077C43.902 9.68971 43.8478 9.65214 43.7913 9.61832C40.7412 7.58887 37.3044 6.21058 33.6963 5.56979H33.6513C33.6277 5.56304 33.6028 5.56304 33.5792 5.56979C32.6787 5.39885 31.7106 5.27739 30.756 5.19642C30.684 3.20815 30.2742 1.98009 29.7925 1.21537C29.6452 0.932775 29.4413 0.6835 29.1934 0.483059C28.9455 0.282618 28.659 0.135304 28.3516 0.050293H28.23H28.149C27.8411 0.135495 27.5541 0.282842 27.3055 0.48323C27.0569 0.683619 26.852 0.932792 26.7036 1.21537C26.2173 1.98009 25.8031 3.21264 25.74 5.20092C16.379 5.99263 8.58482 11.1073 5.47797 18.0258C5.46026 18.0621 5.44521 18.0997 5.43294 18.1382C4.51414 20.2046 4.03866 22.4403 4.03711 24.7013C4.03711 30.0589 6.64416 35.0476 11.3855 38.7677C11.0605 40.8612 11.2633 43.0025 11.9753 44.998C10.8587 48.5966 9.86808 53.1895 11.7502 57.0941C11.751 57.106 11.751 57.1181 11.7502 57.13C13.9205 61.5834 18.171 62.789 22.282 63.9496C24.2389 64.4245 26.1438 65.092 27.9689 65.9423L28.0319 65.9693H28.0724C28.1144 65.9737 28.1566 65.9737 28.1985 65.9693H28.2661C28.3478 65.9702 28.4284 65.9501 28.5002 65.9109C30.3257 65.051 32.2322 64.3744 34.1916 63.8911C36.533 63.2298 38.9239 62.5416 40.9456 61.2685L41.0042 61.228C42.6115 60.2207 43.9008 58.7798 44.7234 57.0716C46.628 53.1625 45.6239 48.6281 44.5703 45.1149C44.5628 45.0903 44.5505 45.0674 44.5343 45.0474C45.6059 42.4474 45.3087 39.6494 45.1691 38.7137C49.906 35.0116 52.513 30.0319 52.513 24.6743ZM51.4999 24.6743C51.4989 26.1297 51.2912 27.5777 50.883 28.9748C50.1632 27.5083 49.2368 26.1526 48.1319 24.9487C46.0832 22.6996 42.4585 19.9241 36.578 18.8355C40.4358 17.3638 44.4252 16.2627 48.4921 15.5472C50.4222 18.2021 51.4738 21.3931 51.4999 24.6743ZM47.8212 14.643C42.5354 15.5937 37.3914 17.2094 32.5121 19.4517C32.1969 16.9012 31.0622 14.8949 29.5583 14.1617C29.6079 13.9817 29.6484 13.8108 29.6889 13.6398C34.1626 12.1384 38.7849 11.122 43.4761 10.608C45.1117 11.7366 46.5752 13.0957 47.8212 14.643ZM41.9272 47.1122L41.657 47.3506C40.6925 48.1046 39.5578 48.6111 38.3521 48.8261H38.2935H38.199H38.172C35.655 49.2759 32.395 48.9385 28.4281 47.7734H28.3741H28.176H28.1355C26.3286 48.3251 24.4746 48.7091 22.5972 48.9205H22.5161C18.9995 49.2624 16.3519 48.6416 14.6094 47.0492C12.5877 45.2859 12.2095 42.5194 12.2095 40.648C13.0656 42.2584 14.3433 43.6064 15.9062 44.5481C18.4952 46.0776 21.7597 46.3475 25.6185 45.4073C25.8679 45.886 26.2443 46.2869 26.7065 46.5661C27.1687 46.8454 27.6989 46.9923 28.239 46.9907C28.7786 46.9925 29.3083 46.8456 29.7698 46.5663C30.2313 46.2869 30.6068 45.8859 30.8551 45.4073C34.7139 46.3654 37.9828 46.0776 40.5674 44.5481C42.1324 43.609 43.4107 42.2604 44.2641 40.648C44.3001 42.5194 43.9219 45.2858 41.9272 47.1122ZM39.6759 60.8907C37.9293 61.7531 36.0932 62.4214 34.2006 62.8834C33.3373 62.0651 32.5958 61.1274 31.9988 60.099C31.0982 58.484 31.5485 56.7072 32.2194 55.0248C32.332 54.7369 32.4671 54.4265 32.6111 54.1026C33.1605 52.8566 33.8179 51.3541 33.5927 49.9641C34.3309 50.0532 35.0735 50.0997 35.8171 50.1036C36.5634 50.1061 37.3087 50.0489 38.0459 49.9327C38.3296 50.7334 37.9243 52.1099 37.5596 53.3469C37.2496 54.2008 37.0631 55.0945 37.0058 56.0009C37.0046 56.9743 37.2486 57.9323 37.7152 58.7868C38.1818 59.6413 38.856 60.3648 39.6759 60.8907ZM28.2706 64.9392C27.5411 64.3994 25.0151 62.3167 24.5288 58.9114C24.0785 55.8165 25.4068 52.4517 28.4417 48.9025C29.7817 49.2857 31.1441 49.5861 32.5211 49.8022C32.8813 50.9448 32.2464 52.3888 31.6836 53.6708C31.535 54.0127 31.3954 54.3366 31.2784 54.6379C30.5354 56.5498 29.9996 58.592 31.1162 60.5758C31.6622 61.5216 32.3231 62.3965 33.0839 63.1803C31.4282 63.6203 29.8156 64.209 28.2661 64.9392H28.2706ZM40.0631 43.6934C37.6406 45.1239 34.4978 45.3398 30.7425 44.3412C30.6764 44.3193 30.6064 44.3114 30.537 44.318C30.4676 44.3245 30.4003 44.3453 30.3394 44.3791C30.2785 44.413 30.2252 44.459 30.183 44.5144C30.1408 44.5698 30.1105 44.6334 30.0941 44.7011C29.9612 45.0788 29.7136 45.4057 29.386 45.6363C29.0583 45.8669 28.6668 45.9897 28.2661 45.9876C27.862 45.9907 27.4673 45.8663 27.1382 45.632C26.8091 45.3977 26.5624 45.0656 26.4335 44.6831C26.4163 44.618 26.3859 44.5573 26.344 44.5046C26.3022 44.452 26.2498 44.4086 26.1903 44.3772C26.1259 44.3427 26.0552 44.3217 25.9824 44.3155C25.9096 44.3093 25.8363 44.318 25.7671 44.3412C22.0208 45.3353 18.8915 45.1194 16.4645 43.6934C14.5641 42.5211 13.1435 40.7112 12.4571 38.5878C12.8669 37.7601 14.8751 33.9994 19.3868 29.627C19.8685 29.3481 25.9922 26.0014 37.1543 29.654C41.6345 34.0039 43.6787 37.8051 44.0795 38.5923C43.3842 40.7102 41.9594 42.513 40.0586 43.6799L40.0631 43.6934ZM24.9521 20.8957C24.9521 18.3181 25.8931 16.051 27.1719 15.2188C27.311 15.1202 27.4624 15.04 27.6222 14.9804C27.7811 14.9205 27.948 14.8841 28.1175 14.8724H28.3066C28.4787 14.8764 28.649 14.9083 28.8109 14.9669C28.9696 15.0194 29.1209 15.092 29.2611 15.1828C30.4003 15.889 31.2828 17.7289 31.4855 19.9196C31.5205 20.2438 31.5371 20.5697 31.535 20.8957C31.535 20.9497 31.535 21.0082 31.535 21.0667C31.5273 21.9026 31.4122 22.7341 31.1928 23.5408C31.097 23.8757 30.9812 24.2047 30.8461 24.5259C30.2382 25.9699 29.2882 26.919 28.2345 26.919C27.1809 26.919 26.2308 25.9744 25.623 24.5304C25.4775 24.1953 25.3586 23.8494 25.2673 23.4958C25.0459 22.6471 24.9399 21.7726 24.9521 20.8957ZM26.0192 26.9415C24.4959 27.0102 22.9853 27.2516 21.5165 27.6613C22.4846 26.8381 23.5698 25.9879 24.7675 25.1332C25.0689 25.8083 25.4933 26.4215 26.0192 26.9415ZM30.3373 27.0855C30.9346 26.5408 31.4089 25.8753 31.7286 25.1332C33.0794 26.1093 34.3312 27.1035 35.4478 28.0796C33.7721 27.6188 32.0636 27.2865 30.3373 27.0855ZM29.9185 12.4883C30.3134 10.6926 30.5753 8.87035 30.702 7.03625C31.6025 6.86082 32.5256 6.69437 33.4757 6.54143C36.5196 7.09115 39.4411 8.17879 42.1028 9.75327C37.9646 10.2817 33.8853 11.1974 29.9185 12.4883ZM27.4826 1.80465C27.6487 1.47941 27.9072 1.21029 28.2255 1.03093C28.5428 1.21175 28.8008 1.48048 28.9685 1.80465C29.3017 2.36695 29.6439 3.36559 29.7159 5.08846C29.7159 5.40335 29.7159 5.74073 29.7159 6.10509V6.20855C29.7159 6.53694 29.6889 6.87881 29.6664 7.25667C29.5032 9.14738 29.2022 11.0237 28.7658 12.8706C28.6938 13.199 28.6218 13.5319 28.5407 13.8783C28.4365 13.862 28.331 13.8545 28.2255 13.8558C28.1021 13.8579 27.9788 13.8669 27.8563 13.8828C27.8068 13.6713 27.7528 13.4644 27.7077 13.253C27.2935 11.4973 26.9927 9.71673 26.8072 7.92243C26.7712 7.56256 26.7441 7.22069 26.7306 6.8968C26.7171 6.57292 26.7036 6.357 26.6991 6.10509C26.6991 5.74073 26.6991 5.40335 26.6991 5.09296C26.8072 3.36559 27.1539 2.36695 27.4826 1.80465ZM25.7175 6.17706C25.7175 6.48745 25.74 6.81583 25.7626 7.15321C16.5231 9.66329 10.8046 13.37 7.89591 15.7001C11.462 10.5315 18.0315 6.85182 25.7175 6.17706ZM6.32447 18.5206C6.68018 18.1382 8.67937 16.069 12.6282 13.7118C16.7669 11.2886 21.2135 9.43357 25.8481 8.19683C26.0543 10.0254 26.37 11.84 26.7937 13.6309C21.7955 15.5443 17.1809 18.3369 13.1686 21.8764C9.11614 25.547 7.0539 28.9658 6.22091 30.6122C5.4126 28.6967 5.0052 26.6362 5.02379 24.5575C5.04237 22.4788 5.48655 20.4259 6.32897 18.5251L6.32447 18.5206ZM6.77474 31.7997C7.40511 30.3783 11.9213 21.1431 25.722 15.1558C24.6369 16.4243 23.9435 18.4981 23.9435 20.8912C23.9328 21.9782 24.0846 23.0608 24.3937 24.103C16.379 29.744 12.7273 35.8483 11.7232 37.7421C9.67813 36.1253 7.99152 34.1018 6.77024 31.7997H6.77474ZM12.6282 46.2935C12.987 46.8681 13.4199 47.3929 13.916 47.8544C14.7584 48.6155 15.7551 49.1863 16.8382 49.5278C15.7783 49.863 14.8041 50.4248 13.9835 51.1742C12.9811 52.1385 12.2843 53.3758 11.9798 54.7324C11.3089 51.9524 11.8628 48.9205 12.6057 46.2935H12.6282ZM12.7273 56.7702C13.0155 49.9686 19.3868 50.0721 19.6659 50.0811C19.7135 50.0828 19.7609 50.0751 19.8055 50.0586C20.1432 50.0586 20.4899 50.0856 20.8411 50.0586C18.7519 51.705 17.4866 53.6123 17.0814 55.749C16.7527 57.6744 17.0443 59.6544 17.9144 61.4035C15.7531 60.4813 13.898 59.1453 12.7048 56.7702H12.7273ZM19.4138 61.9928C19.0401 61.4215 17.5272 58.8844 18.0945 55.947C18.5448 53.6663 20.1072 51.6555 22.7683 49.9686C24.1541 49.8197 25.5268 49.5671 26.8747 49.2129C24.2136 52.6452 23.0835 55.9605 23.5337 59.0553C23.8091 60.8538 24.5792 62.5404 25.7581 63.9271C24.6999 63.5582 23.6193 63.2523 22.5567 62.9509C21.494 62.6495 20.4089 62.3436 19.4138 61.9928ZM40.68 60.2699C39.8833 59.866 39.2141 59.2495 38.7468 58.4888C38.2794 57.7282 38.0322 56.853 38.0324 55.9605C38.0975 55.1602 38.2686 54.3721 38.5412 53.6168C38.9554 52.2313 39.3742 50.8053 39.0635 49.7167C39.8995 49.5136 40.7007 49.1877 41.4409 48.7496C41.4409 52.6317 43.5797 54.3006 44.4712 54.8314C44.3192 55.4659 44.1003 56.0827 43.8183 56.6712C43.1086 58.132 42.0183 59.3751 40.6619 60.2699H40.68ZM44.6828 53.7518C43.8048 53.1085 42.2559 51.4666 42.49 47.9804L42.6341 47.8544C43.1135 47.4149 43.5328 46.9143 43.8814 46.3654C44.5027 48.6416 45.0115 51.2507 44.6648 53.7518H44.6828ZM44.7954 37.7556C43.8093 35.8933 40.1711 29.8115 32.1158 24.148C32.4415 23.0949 32.6025 21.9979 32.5931 20.8957C32.5931 20.7878 32.5931 20.6753 32.5931 20.5718C33.3 20.23 34.0295 19.8971 34.7814 19.5867C41.3419 20.3694 45.2457 23.2799 47.3664 25.5965C48.6716 26.992 49.7026 28.6202 50.4057 30.3963C49.1941 33.292 47.2556 35.8267 44.7774 37.7556H44.7954Z" fill="#3F4E65"/>
<path d="M21.5294 35.9868C20.03 35.9868 18.6882 36.6436 18.1839 37.6242C18.1239 37.7437 18.1134 37.8819 18.1547 38.0091C18.196 38.1362 18.2858 38.242 18.4046 38.3035C18.476 38.3387 18.5545 38.3572 18.6342 38.3574C18.7273 38.3577 18.8186 38.3322 18.8981 38.2837C18.9776 38.2353 19.0421 38.1658 19.0845 38.083C19.4131 37.4443 20.4353 36.9944 21.5294 36.9944C22.6236 36.9944 23.6457 37.4443 23.9789 38.083C24.0089 38.1422 24.0504 38.1949 24.1008 38.238C24.1513 38.2812 24.2098 38.3139 24.273 38.3344C24.3362 38.3549 24.4028 38.3627 24.469 38.3574C24.5352 38.3521 24.5997 38.3338 24.6588 38.3035C24.7787 38.242 24.8693 38.1354 24.9107 38.0072C24.9521 37.879 24.9408 37.7396 24.8794 37.6197C24.3661 36.6436 23.0153 35.9868 21.5294 35.9868Z" fill="#3F4E65"/>
<path d="M34.9788 35.9868C33.4794 35.9868 32.1331 36.6436 31.6333 37.6242C31.6024 37.6831 31.5836 37.7476 31.578 37.8139C31.5723 37.8802 31.58 37.947 31.6006 38.0102C31.6211 38.0735 31.6541 38.132 31.6976 38.1824C31.7412 38.2328 31.7943 38.2739 31.854 38.3035C31.9254 38.3387 32.004 38.3572 32.0836 38.3574C32.1767 38.3577 32.268 38.3322 32.3475 38.2837C32.427 38.2353 32.4915 38.1658 32.5339 38.083C32.8626 37.4443 33.8847 36.9944 34.9788 36.9944C36.073 36.9944 37.0951 37.4443 37.4283 38.083C37.4583 38.1422 37.4998 38.1949 37.5503 38.238C37.6007 38.2812 37.6592 38.3139 37.7224 38.3344C37.7856 38.3549 37.8522 38.3627 37.9184 38.3574C37.9846 38.3521 38.0491 38.3338 38.1082 38.3035C38.2273 38.2411 38.3171 38.1345 38.3584 38.0066C38.3997 37.8788 38.389 37.7398 38.3288 37.6197C37.82 36.6436 36.4737 35.9868 34.9788 35.9868Z" fill="#3F4E65"/>
<path d="M67.8707 29.0774C71.1621 29.0774 74.7282 30.8767 75.3406 35.1097H71.3467C70.7794 33.4993 69.5727 32.7705 67.8707 32.7705C65.4887 32.7705 63.9218 34.5699 63.9218 37.1924C63.9218 39.5316 65.4662 41.5693 67.8707 41.5963C69.5997 41.5963 70.982 40.7327 71.4143 39.0323H75.4081C74.8183 43.5306 71.2567 45.2895 67.8707 45.2895C63.8182 45.312 59.7433 42.5905 59.7208 37.1924C59.6983 31.7944 63.8317 29.0774 67.8707 29.0774Z" fill="#3F4E65"/>
<path d="M81.7655 44.6959L84.2509 39.5767L78.9062 29.8513V29.2395H83.445L86.4437 35.0874H86.5563L89.2804 29.2395H93.7066V29.8513L86.1466 45.1457H81.7655V44.6959Z" fill="#3F4E65"/>
<path d="M98.7054 45.1455H94.7295V44.5562L101.88 29.0684H103.613L110.818 44.5427V45.1455H106.842L102.758 35.8474L98.7054 45.1455Z" fill="#3F4E65"/>
<path d="M112.668 32.8875V29.2573H124.47V32.8875H120.588V45.1456H116.572V32.8875H112.668Z" fill="#3F4E65"/>
<path d="M137.5 43.1347H131.236L130.304 45.1455H126.333V44.5562L133.483 29.0684H135.23L142.403 44.5562V45.1455H138.432L137.5 43.1347ZM134.348 35.4875L132.547 39.662H136.18L134.348 35.4875Z" fill="#3F4E65"/>
<path d="M160 45.1456H155.844V38.7579H150.941V45.1456H146.789V29.2573H150.941V35.0152H155.844V29.2573H160V45.1456Z" fill="#3F4E65"/>
</g>
<defs>
<filter id="filter0_d_4602_674" x="0" y="0" width="164" height="74" filterUnits="userSpaceOnUse" color-interpolation-filters="sRGB">
<feFlood flood-opacity="0" result="BackgroundImageFix"/>
<feColorMatrix in="SourceAlpha" type="matrix" values="0 0 0 0 0 0 0 0 0 0 0 0 0 0 0 0 0 0 127 0" result="hardAlpha"/>
<feOffset dy="4"/>
<feGaussianBlur stdDeviation="2"/>
<feComposite in2="hardAlpha" operator="out"/>
<feColorMatrix type="matrix" values="0 0 0 0 0 0 0 0 0 0 0 0 0 0 0 0 0 0 0.25 0"/>
<feBlend mode="normal" in2="BackgroundImageFix" result="effect1_dropShadow_4602_674"/>
<feBlend mode="normal" in="SourceGraphic" in2="effect1_dropShadow_4602_674" result="shape"/>
</filter>
<clipPath id="clip0_4602_674">
<rect width="156" height="66" fill="white" transform="translate(4)"/>
</clipPath>
</defs>
</svg>
